<?xml version="1.0" standalone="no"?>
<!DOCTYPE svg PUBLIC "-//W3C//DTD SVG 20010904//EN"
 "http://www.w3.org/TR/2001/REC-SVG-20010904/DTD/svg10.dtd">
<svg version="1.0" xmlns="http://www.w3.org/2000/svg"
 width="1024.000000pt" height="1024.000000pt" viewBox="0 0 1024.000000 1024.000000"
 preserveAspectRatio="xMidYMid meet">
<metadata>
Created by potrace 1.11, written by Peter Selinger 2001-2013
</metadata>
<g transform="translate(0.000000,1024.000000) scale(0.100000,-0.100000)"
fill="#000000" stroke="none">
<path d="M2563 6178 c2 -1069 6 -1965 10 -1993 4 -27 9 -61 11 -75 3 -14 8
-47 11 -75 5 -41 33 -180 60 -291 23 -99 98 -290 164 -421 42 -84 161 -278
180 -293 3 -3 19 -22 34 -42 177 -238 496 -478 814 -613 48 -21 102 -43 118
-51 117 -52 448 -132 655 -159 25 -3 56 -8 70 -10 113 -19 547 -26 730 -12
951 74 1672 504 2009 1197 31 64 62 130 69 148 18 43 73 202 78 226 2 10 8 33
13 50 6 17 12 42 15 56 2 14 9 45 15 70 5 25 12 61 16 80 3 19 8 46 10 60 6
26 10 66 24 210 5 47 9 939 10 1983 l1 1897 -590 0 c-465 0 -590 -3 -590 -12
0 -7 9 -58 19 -113 11 -55 23 -127 26 -160 4 -33 8 -71 10 -84 12 -76 19 -209
20 -379 l0 -193 -65 -62 c-197 -188 -414 -343 -632 -451 -81 -40 -90 -47 -60
-40 229 47 434 114 621 200 51 24 95 44 98 44 9 0 -89 -175 -153 -274 -66
-101 -166 -235 -232 -311 -122 -140 -331 -339 -426 -404 -12 -8 -23 -18 -26
-21 -3 -3 -43 -32 -90 -65 -111 -76 -109 -74 -59 -69 204 17 413 66 612 143
l76 29 -39 -78 c-172 -342 -424 -682 -745 -1006 -101 -102 -149 -147 -276
-259 -43 -38 -242 -195 -338 -267 -41 -32 -48 -44 -140 -273 l-97 -240 -169
-230 c-92 -126 -172 -234 -177 -240 -8 -8 -6 315 6 1015 1 74 -2 91 -24 130
-58 102 -154 310 -220 475 -272 681 -342 1341 -209 1950 31 139 91 341 128
430 5 11 13 31 18 45 25 61 34 82 88 195 68 142 181 332 276 467 38 53 69 99
69 102 0 3 -412 6 -915 6 l-916 0 4 -1942z"/>
</g>
</svg>
